<svg width="54" height="47" viewBox="0 0 54 47" fill="none" xmlns="http://www.w3.org/2000/svg">
<path d="M28.2725 14.9511C24.2189 14.9511 20.9475 18.2225 20.9475 22.2761C20.9475 26.3296 24.2189 29.6011 28.2725 29.6011C32.3261 29.6011 35.5975 26.3296 35.5975 22.2761C35.5975 18.2225 32.3261 14.9511 28.2725 14.9511ZM28.2725 27.0368C25.6511 27.0368 23.5118 24.8975 23.5118 22.2761C23.5118 19.6546 25.6511 17.5153 28.2725 17.5153C30.8939 17.5153 33.0332 19.6546 33.0332 22.2761C33.0332 24.8975 30.8939 27.0368 28.2725 27.0368ZM35.8975 12.9439C34.9511 12.9439 34.1868 13.7082 34.1868 14.6546C34.1868 15.6011 34.9511 16.3653 35.8975 16.3653C36.8439 16.3653 37.6082 15.6046 37.6082 14.6546C37.6085 14.4299 37.5644 14.2073 37.4786 13.9996C37.3927 13.792 37.2667 13.6033 37.1078 13.4443C36.9489 13.2854 36.7602 13.1594 36.5525 13.0736C36.3448 12.9877 36.1222 12.9436 35.8975 12.9439V12.9439ZM42.5511 22.2761C42.5511 20.3046 42.5689 18.3511 42.4582 16.3832C42.3475 14.0975 41.8261 12.0689 40.1546 10.3975C38.4796 8.72249 36.4546 8.20463 34.1689 8.09392C32.1975 7.98321 30.2439 8.00106 28.2761 8.00106C26.3046 8.00106 24.3511 7.98321 22.3832 8.09392C20.0975 8.20463 18.0689 8.72606 16.3975 10.3975C14.7225 12.0725 14.2046 14.0975 14.0939 16.3832C13.9832 18.3546 14.0011 20.3082 14.0011 22.2761C14.0011 24.2439 13.9832 26.2011 14.0939 28.1689C14.2046 30.4546 14.7261 32.4832 16.3975 34.1546C18.0725 35.8296 20.0975 36.3475 22.3832 36.4582C24.3546 36.5689 26.3082 36.5511 28.2761 36.5511C30.2475 36.5511 32.2011 36.5689 34.1689 36.4582C36.4546 36.3475 38.4832 35.8261 40.1546 34.1546C41.8296 32.4796 42.3475 30.4546 42.4582 28.1689C42.5725 26.2011 42.5511 24.2475 42.5511 22.2761V22.2761ZM39.4082 30.6975C39.1475 31.3475 38.8332 31.8332 38.3296 32.3332C37.8261 32.8368 37.3439 33.1511 36.6939 33.4118C34.8153 34.1582 30.3546 33.9903 28.2725 33.9903C26.1903 33.9903 21.7261 34.1582 19.8475 33.4153C19.1975 33.1546 18.7118 32.8403 18.2118 32.3368C17.7082 31.8332 17.3939 31.3511 17.1332 30.7011C16.3903 28.8189 16.5582 24.3582 16.5582 22.2761C16.5582 20.1939 16.3903 15.7296 17.1332 13.8511C17.3939 13.2011 17.7082 12.7153 18.2118 12.2153C18.7153 11.7153 19.1975 11.3975 19.8475 11.1368C21.7261 10.3939 26.1903 10.5618 28.2725 10.5618C30.3546 10.5618 34.8189 10.3939 36.6975 11.1368C37.3475 11.3975 37.8332 11.7118 38.3332 12.2153C38.8368 12.7189 39.1511 13.2011 39.4118 13.8511C40.1546 15.7296 39.9868 20.1939 39.9868 22.2761C39.9868 24.3582 40.1546 28.8189 39.4082 30.6975Z" fill="white"/>
</svg>
