<?xml version="1.0" encoding="UTF-8" standalone="no"?>
<svg
   width="25.000002"
   height="25.000027"
   viewBox="0 0 25.000002 25.000027"
   fill="none"
   version="1.1"
   id="svg4"
   sodipodi:docname="eb6c87223f80f53c265a8928b0059732.svg"
   xmlns:inkscape="http://www.inkscape.org/namespaces/inkscape"
   xmlns:sodipodi="http://sodipodi.sourceforge.net/DTD/sodipodi-0.dtd"
   xmlns="http://www.w3.org/2000/svg"
   xmlns:svg="http://www.w3.org/2000/svg">
  <defs
     id="defs8" />
  <sodipodi:namedview
     id="namedview6"
     pagecolor="#ffffff"
     bordercolor="#666666"
     borderopacity="1.0"
     inkscape:pageshadow="2"
     inkscape:pageopacity="0.0"
     inkscape:pagecheckerboard="0" />
  <path
     d="m 12.496601,6.0863007 c -3.5492002,0 -6.4135002,2.8644 -6.4135002,6.4137003 0,3.5493 2.8643,6.4137 6.4135002,6.4137 3.5492,0 6.4136,-2.8644 6.4136,-6.4137 0,-3.5493003 -2.8644,-6.4137003 -6.4136,-6.4137003 z m 0,10.5821003 c -2.2952,0 -4.1683002,-1.8731 -4.1683002,-4.1684 0,-2.2953 1.8731002,-4.1684003 4.1683002,-4.1684003 2.2953,0 4.1684,1.8731003 4.1684,4.1684003 0,2.2953 -1.8731,4.1684 -4.1684,4.1684 z m 6.6763,-12.3395503 c -0.8287,0 -1.4979,0.66921 -1.4979,1.49789 0,0.82866 0.6692,1.49786 1.4979,1.49786 0.8287,0 1.4979,-0.666 1.4979,-1.49786 2e-4,-0.19677 -0.0384,-0.39166 -0.1136,-0.57351 -0.0751,-0.18184 -0.1855,-0.34706 -0.3246,-0.48621 -0.1391,-0.13914 -0.3044,-0.24946 -0.4862,-0.32465 -0.1818,-0.07519 -0.3767,-0.11376 -0.5735,-0.11352 z m 5.8257,8.1711503 c 0,-1.7262 0.0156,-3.4367003 -0.0813,-5.1597003 -0.0969,-2.00139 -0.5535,-3.77759 -2.0169,-5.24108 -1.4666,-1.46661004 -3.2397,-1.92004004 -5.241,-2.01698004 -1.7261,-0.09695 -3.4366,-0.0813100002 -5.1596,-0.0813100002 -1.7262,0 -3.4367002,-0.0156399998 -5.1597002,0.0813100002 -2.00129,0.09694 -3.77745,0.55349 -5.24092,2.01698004 -1.46658,1.46662 -1.92001,3.23969 -2.01695,5.24108 -0.09694,1.7261 -0.081299995,3.4367003 -0.081299995,5.1597003 0,1.723 -0.015640005,3.4367 0.081299995,5.1597 0.09694,2.0014 0.55349,3.7776 2.01695,5.2411 1.46659,1.4666 3.23963,1.92 5.24092,2.017 1.7262,0.0969 3.4367002,0.0813 5.1597002,0.0813 1.7261,0 3.4366,0.0156 5.1596,-0.0813 2.0013,-0.097 3.7775,-0.5535 5.241,-2.017 1.4665,-1.4666 1.92,-3.2397 2.0169,-5.2411 0.1001,-1.723 0.0813,-3.4335 0.0813,-5.1597 z m -2.7518,7.3737 c -0.2283,0.5692 -0.5035,0.9945 -0.9444,1.4322 -0.4409,0.441 -0.863,0.7162 -1.4322,0.9444 -1.6448,0.6536 -5.5505,0.5066 -7.3736,0.5066 -1.823,0 -5.7319002,0.147 -7.3766802,-0.5034 -0.56913,-0.2283 -0.9944,-0.5035 -1.43219,-0.9444 -0.44092,-0.4409 -0.7161,-0.8631 -0.94437,-1.4322 -0.65043,-1.648 -0.50346,-5.5538 -0.50346,-7.3769 0,-1.8231 -0.14697,-5.7320003 0.50346,-7.3768603 0.22827,-0.56913 0.50345,-0.99442 0.94437,-1.43222 0.44091,-0.43779 0.86306,-0.71611 1.43219,-0.94438 1.64478,-0.65044 5.5536802,-0.50347 7.3766802,-0.50347 1.8231,0 5.7319,-0.14697 7.3768,0.50347 0.5691,0.22827 0.9944,0.50346 1.4322,0.94438 0.4409,0.44093 0.716,0.86309 0.9443,1.43222 0.6505,1.64486 0.5035,5.5537603 0.5035,7.3768603 0,1.8231 0.147,5.7289 -0.5066,7.3737 z"
     fill="#ffffff"
     id="path2" />
</svg>
